<?xml version="1.0" encoding="utf-8"?>
<svg version="1.1" xmlns:xlink="http://www.w3.org/1999/xlink" width="25px" height="25px" xmlns="http://www.w3.org/2000/svg">
  <g transform="matrix(1 0 0 1 -29 -1500 )">
    <path d="M 24.4480298913043 10.0208600770218  C 24.8160099637681 10.4220154043646  25 10.9060761660248  25 11.4730423620026  L 25 13.5269576379974  C 25 14.0939238339752  24.8160099637681 14.5779845956354  24.4480298913043 14.9791399229782  C 24.0800498188406 15.3802952503209  23.6016757246377 15.5808729139923  23.0129076086957 15.5808729139923  L 11.0563858695652 15.5808729139923  L 16.0326086956522 20.298459563543  C 16.4628623188406 20.683568677792  16.6779891304348 21.1649550706033  16.6779891304348 21.7426187419769  C 16.6779891304348 22.3202824133505  16.4628623188406 22.8016688061617  16.0326086956522 23.1867779204108  L 14.7588315217391 24.4062901155327  C 14.3399003623188 24.8020967051776  13.8303894927536 25  13.2302989130435 25  C 12.6415307971014 25  12.1263586956522 24.8020967051776  11.6847826086957 24.4062901155327  L 0.628396739130435 13.9441591784339  C 0.209465579710145 13.548352588789  0 13.0669661959777  0 12.5  C 0 11.9437312794181  0.209465579710145 11.4569961489089  0.628396739130435 11.0397946084724  L 11.6847826086957 0.609756097560976  C 12.1150362318841 0.203252032520324  12.6302083333333 0  13.2302989130435 0  C 13.8190670289855 0  14.3285778985507 0.203252032520324  14.7588315217391 0.609756097560976  L 16.0326086956522 1.79717586649551  C 16.4628623188406 2.20367993153616  16.6779891304348 2.69041506204535  16.6779891304348 3.25738125802311  C 16.6779891304348 3.82434745400085  16.4628623188406 4.31108258451005  16.0326086956522 4.71758664955071  L 11.0563858695652 9.4191270860077  L 23.0129076086957 9.4191270860077  C 23.6016757246377 9.4191270860077  24.0800498188406 9.61970474967907  24.4480298913043 10.0208600770218  Z " fill-rule="nonzero" fill="#797979" stroke="none" transform="matrix(1 0 0 1 29 1500 )" />
  </g>
</svg>