<?xml version="1.0" encoding="utf-8"?>
<svg version="1.1" xmlns:xlink="http://www.w3.org/1999/xlink" width="20px" height="17px" xmlns="http://www.w3.org/2000/svg">
  <g transform="matrix(1 0 0 1 -106 -795 )">
    <path d="M 18.4654017857143 15.33984375  C 18.5360863095238 15.2633759469697  18.5714285714286 15.172821969697  18.5714285714286 15.0681818181818  L 18.5714285714286 5.79545454545455  C 18.3333333333333 6.08522727272727  18.0766369047619 6.35085227272727  17.8013392857143 6.59232954545455  C 15.8072916666667 8.25047348484848  14.2224702380952 9.61079545454546  13.046875 10.6732954545455  C 12.6674107142857 11.0194128787879  12.358630952381 11.2890625  12.1205357142857 11.4822443181818  C 11.8824404761905 11.6754261363636  11.5606398809524 11.8706202651515  11.1551339285714 12.0678267045455  C 10.7496279761905 12.2650331439394  10.3683035714286 12.3636363636364  10.0111607142857 12.3636363636364  L 10 12.3636363636364  L 9.98883928571429 12.3636363636364  C 9.63169642857143 12.3636363636364  9.25037202380952 12.2650331439394  8.84486607142857 12.0678267045455  C 8.43936011904762 11.8706202651515  8.11755952380952 11.6754261363636  7.87946428571429 11.4822443181818  C 7.64136904761905 11.2890625  7.33258928571429 11.0194128787879  6.953125 10.6732954545455  C 5.77752976190476 9.61079545454546  4.19270833333333 8.25047348484848  2.19866071428571 6.59232954545455  C 1.9233630952381 6.35085227272727  1.66666666666667 6.08522727272727  1.42857142857143 5.79545454545455  L 1.42857142857143 15.0681818181818  C 1.42857142857143 15.172821969697  1.46391369047619 15.2633759469697  1.53459821428571 15.33984375  C 1.60528273809524 15.4163115530303  1.6889880952381 15.4545454545455  1.78571428571429 15.4545454545455  L 18.2142857142857 15.4545454545455  C 18.3110119047619 15.4545454545455  18.3947172619048 15.4163115530303  18.4654017857143 15.33984375  Z M 18.0524553571429 3.96626420454545  C 18.3984375 3.38269412878788  18.5714285714286 2.85345643939394  18.5714285714286 2.37855113636364  L 18.5714285714286 2.24573863636364  L 18.5714285714286 2.08274147727273  C 18.5714285714286 2.08274147727273  18.569568452381 2.03042140151515  18.5658482142857 1.92578125  C 18.5621279761905 1.82114109848485  18.5509672619048 1.77083333333333  18.5323660714286 1.77485795454545  C 18.5137648809524 1.77888257575758  18.4933035714286 1.74266098484848  18.4709821428571 1.66619318181818  C 18.4486607142857 1.58972537878788  18.4151785714286 1.55954071969697  18.3705357142857 1.57563920454545  C 18.3258928571429 1.59173768939394  18.2738095238095 1.58167613636364  18.2142857142857 1.54545454545455  L 1.78571428571429 1.54545454545455  C 1.6889880952381 1.54545454545455  1.60528273809524 1.58368844696969  1.53459821428571 1.66015625  C 1.46391369047619 1.7366240530303  1.42857142857143 1.82717803030303  1.42857142857143 1.93181818181818  C 1.42857142857143 3.28409090909091  1.97544642857143 4.42708333333333  3.06919642857143 5.36079545454545  C 4.50520833333333 6.5842803030303  5.99702380952381 7.86008522727273  7.54464285714286 9.18821022727273  C 7.58928571428571 9.22845643939394  7.71949404761905 9.34718276515152  7.93526785714286 9.54438920454546  C 8.15104166666667 9.74159564393939  8.32217261904762 9.89251893939394  8.44866071428571 9.99715909090909  C 8.57514880952381 10.1017992424242  8.74069940476191 10.2285748106061  8.9453125 10.3774857954545  C 9.14992559523809 10.526396780303  9.33779761904762 10.6370738636364  9.50892857142857 10.7095170454545  C 9.68005952380952 10.7819602272727  9.84002976190476 10.8181818181818  9.98883928571429 10.8181818181818  L 10 10.8181818181818  L 10.0111607142857 10.8181818181818  C 10.1599702380952 10.8181818181818  10.3199404761905 10.7819602272727  10.4910714285714 10.7095170454545  C 10.6622023809524 10.6370738636364  10.8500744047619 10.526396780303  11.0546875 10.3774857954545  C 11.2593005952381 10.2285748106061  11.4248511904762 10.1017992424242  11.5513392857143 9.99715909090909  C 11.6778273809524 9.89251893939394  11.8489583333333 9.74159564393939  12.0647321428571 9.54438920454546  C 12.280505952381 9.34718276515152  12.4107142857143 9.22845643939394  12.4553571428571 9.18821022727273  C 14.0029761904762 7.86008522727273  15.4947916666667 6.5842803030303  16.9308035714286 5.36079545454545  C 17.3325892857143 5.01467803030303  17.7064732142857 4.54983428030303  18.0524553571429 3.96626420454545  Z M 19.4754464285714 0.56747159090909  C 19.8251488095238 0.945785984848483  20 1.40056818181818  20 1.93181818181818  L 20 15.0681818181818  C 20 15.5994318181818  19.8251488095238 16.0542140151515  19.4754464285714 16.4325284090909  C 19.1257440476191 16.8108428030303  18.7053571428571 17  18.2142857142857 17  L 1.78571428571429 17  C 1.29464285714286 17  0.874255952380952 16.8108428030303  0.524553571428571 16.4325284090909  C 0.17485119047619 16.0542140151515  0 15.5994318181818  0 15.0681818181818  L 0 1.93181818181818  C 0 1.40056818181818  0.17485119047619 0.945785984848483  0.524553571428571 0.56747159090909  C 0.874255952380952 0.189157196969695  1.29464285714286 0  1.78571428571429 0  L 18.2142857142857 0  C 18.7053571428571 0  19.1257440476191 0.189157196969695  19.4754464285714 0.56747159090909  Z " fill-rule="nonzero" fill="#000000" stroke="none" transform="matrix(1 0 0 1 106 795 )" />
  </g>
</svg>